<?xml version="1.0" standalone="no"?>
<!DOCTYPE svg PUBLIC "-//W3C//DTD SVG 20010904//EN"
 "http://www.w3.org/TR/2001/REC-SVG-20010904/DTD/svg10.dtd">
<svg version="1.0" xmlns="http://www.w3.org/2000/svg"
 width="279.000000pt" height="95.000000pt" viewBox="0 0 279.000000 95.000000"
 preserveAspectRatio="xMidYMid meet">

<g transform="translate(0.000000,95.000000) scale(0.100000,-0.100000)"
fill="#000000" stroke="none">
<path d="M88 839 c-17 -9 -18 -34 -18 -292 0 -166 4 -298 11 -320 13 -47 63
-106 106 -123 46 -20 131 -17 180 5 26 12 52 35 70 62 l28 42 5 286 5 286 58
3 57 3 0 -266 c0 -331 -5 -346 -115 -377 -38 -10 -50 -18 -50 -33 0 -17 7 -20
52 -20 43 1 59 6 90 31 75 60 78 72 81 404 3 270 1 296 -14 307 -23 17 -185
18 -202 1 -9 -9 -12 -87 -12 -290 0 -231 -3 -284 -16 -318 -21 -53 -72 -84
-136 -83 -55 1 -91 20 -118 66 -18 30 -20 52 -20 305 l0 273 58 -3 57 -3 3
-131 c2 -101 -1 -137 -12 -160 -13 -24 -13 -32 -2 -49 7 -11 25 -21 40 -23 33
-4 57 38 38 69 -8 12 -12 72 -12 177 0 110 -4 162 -12 170 -15 15 -175 16
-200 1z"/>
<path d="M820 557 c0 -146 15 -202 66 -246 110 -97 359 -73 425 41 22 39 24
56 27 186 l4 142 -76 0 -76 0 0 -114 c0 -121 -7 -153 -40 -186 -31 -31 -109
-28 -142 5 -30 30 -38 69 -38 198 l0 97 -75 0 -75 0 0 -123z"/>
<path d="M1430 469 l0 -210 215 3 215 3 31 31 c52 53 39 150 -23 169 -17 6
-16 9 11 34 39 36 48 74 28 115 -27 58 -60 66 -281 66 l-196 0 0 -211z m323
100 c6 -9 7 -24 4 -33 -5 -13 -22 -16 -92 -16 l-85 0 0 35 0 36 81 -3 c62 -2
84 -7 92 -19z m10 -160 c6 -9 7 -24 4 -33 -5 -13 -22 -16 -97 -16 l-90 0 0 35
0 36 86 -3 c67 -2 89 -7 97 -19z"/>
<path d="M2000 470 l0 -210 75 0 75 0 0 210 0 210 -75 0 -75 0 0 -210z"/>
<path d="M2207 673 c-4 -3 -7 -28 -7 -55 l0 -48 90 0 90 0 0 -155 0 -155 80 0
80 0 0 155 0 155 85 0 85 0 0 55 0 55 -248 0 c-137 0 -252 -3 -255 -7z"/>
</g>
</svg>
